<svg width="585" height="440" viewBox="0 0 585 440" fill="none" xmlns="http://www.w3.org/2000/svg">
<g clip-path="url(#clip0_403_1874)">
<path d="M100.285 416.349C100.285 416.349 27.4573 364.488 6.49173 276.212C-14.4745 187.936 17.5255 80.9009 78.2156 26.8316C138.905 -27.2364 248.147 9.17688 296.699 54.4182C345.249 99.6595 345.249 99.6595 345.249 99.6595C345.249 99.6595 391.595 125.038 452.285 122.832C512.975 120.625 567.043 203.384 581.388 268.488C595.732 333.59 561.525 419.658 561.525 419.658L100.285 416.349Z" fill="#D1EBFA"/>
<path d="M58.9052 424.18C43.9557 413.35 13.0817 385.856 3.18121 338.004C-0.927593 318.145 1.76401 298.814 7.59534 280.644C22.1803 336.625 57.3484 377.437 79.9287 398.97H58.9052V424.18ZM569.732 398.97H568.633C574.004 381.661 580.908 355.37 583.675 327.418C585.308 341.988 583.944 357.098 579.18 374.418C576.529 384.06 573.245 392.176 569.732 398.97ZM549.252 191.628C525.147 153.26 491.192 122.789 454.665 122.789C453.875 122.789 453.077 122.804 452.285 122.832C449.755 122.924 447.255 122.968 444.777 122.968C387.816 122.968 345.249 99.6597 345.249 99.6597C345.249 99.6597 345.249 99.6597 296.699 54.4184C294.067 51.9664 291.253 49.5357 288.283 47.149C315.492 33.0744 347.733 2.96368 394.695 2.96368C401.104 2.96368 407.785 3.52371 414.768 4.7637C483.18 16.901 549.388 53.3144 552.699 132.764C553.823 159.758 551.636 177.836 549.252 191.628Z" fill="#D1EAF9"/>
<path d="M568.633 398.971H473.477C482.719 374.408 493.004 339.84 489.967 313.728C484.705 268.488 459.445 225.453 407.872 192.349C388.328 179.804 357.6 170.587 324.163 168.601C326.204 156.141 326.295 143.004 325.664 136.073C324.561 123.936 318.768 114.004 318.768 114.004C318.768 114.004 307.876 107.827 293.953 107.827C289.74 107.827 285.248 108.393 280.699 109.867C261.112 116.211 254.216 146.556 256.423 162.556C257.052 167.116 258.191 171.035 259.699 174.477C225.987 183.247 194.953 201.853 175.271 234.28C146.372 281.892 148.207 331.924 155.963 367.3V398.971H79.9287C57.3484 377.437 22.1803 336.625 7.59534 280.644C20.5568 240.257 49.0312 205.592 52.836 183.521C58.3536 151.521 46.2156 111.797 96.9747 80.9014C147.732 50.0041 238.216 61.0387 272.423 53.3147C277.559 52.1547 282.819 49.9761 288.283 47.1494C291.253 49.5361 294.067 51.9667 296.699 54.4187C345.249 99.66 345.249 99.66 345.249 99.66C345.249 99.66 387.816 122.968 444.777 122.968C447.255 122.968 449.755 122.924 452.285 122.832C453.077 122.804 453.875 122.789 454.665 122.789C491.192 122.789 525.147 153.26 549.252 191.628C544.621 218.425 539.253 229.041 556.008 257.453C571.429 283.601 581.147 304.86 583.675 327.419C580.908 355.371 574.004 381.661 568.633 398.971Z" fill="#B0D6F2"/>
<path d="M473.477 398.971H380.829C382.371 393.424 386.077 373.04 386.077 373.04C386.077 373.04 354.629 346.097 352.975 341.683C351.871 338.74 352.423 284.212 347.732 259.108C343.043 234.004 336.975 228.947 324.285 222.695C311.171 216.232 291.732 210.188 291.732 210.188C291.732 210.188 295.595 219.108 299.18 240.073C302.768 261.04 306.077 296.349 306.905 320.625C307.656 342.636 308.179 390.271 308.271 398.971H269.261C269.924 392.743 272.528 367.421 271.319 364.764C270.787 363.591 257.912 362.913 242.308 362.521V262.971C242.308 262.971 226.44 261.863 209.172 261.863C193.056 261.863 175.72 262.828 168.928 266.556C154.86 274.28 155.963 301.04 155.963 301.04V367.3C148.207 331.924 146.372 281.892 175.271 234.28C194.953 201.853 225.987 183.247 259.699 174.477C259.849 174.82 260.003 175.159 260.16 175.492C259.053 184.289 256.876 200.747 255.871 202.556C254.492 205.039 254.492 205.039 254.492 205.039L247.595 209.729C247.595 209.729 260.836 228.488 277.112 231.521C279.323 231.935 281.207 232.112 282.813 232.112C293.039 232.112 292.008 224.901 292.008 224.901L289.525 219.66L291.691 200.903C293.388 201.165 295.113 201.308 296.833 201.308C303.983 201.308 311.052 198.865 315.732 192.625C319.993 186.944 322.629 177.964 324.163 168.601C357.6 170.587 388.328 179.804 407.872 192.349C459.445 225.453 484.705 268.488 489.967 313.728C493.004 339.84 482.719 374.408 473.477 398.971Z" fill="#95C3EB"/>
<path d="M536.285 259.199H476.789C473.109 259.199 470.123 256.214 470.123 252.533V222.831C470.123 219.15 473.109 216.165 476.789 216.165H536.285C539.967 216.165 542.952 219.15 542.952 222.831V252.533C542.952 256.214 539.967 259.199 536.285 259.199Z" fill="#599FDC"/>
<path d="M506.537 276.027L515.965 253.682H497.109L506.537 276.027Z" fill="#599FDC"/>
<path d="M506.312 230.293H523.343V232.785L531.692 227.971L523.343 223.157V225.649H506.312V230.293Z" fill="#293D8A"/>
<path d="M531.692 240.086H514.661V237.594L506.312 242.407L514.661 247.221V244.729H531.692V240.086Z" fill="white"/>
<path d="M495.859 244.467L495.048 244.763C495.048 244.763 492.521 241.877 491.209 238.735C489.897 235.593 489.852 231.756 489.852 231.756L490.445 231.508L486.843 222.889C486.201 223.391 485.589 224.036 485.095 224.872C483.057 228.316 483.259 233.601 485.309 238.765C487.359 243.928 489.551 248.533 493.551 251.429C495.911 253.139 497.933 253.437 499.504 253.189L495.859 244.467Z" fill="#293D8A"/>
<path d="M498.445 243.452L497.325 243.859L501.011 252.683C501.428 252.547 501.801 252.379 502.125 252.201C503.077 251.68 503.496 250.535 503.095 249.527L501.169 244.675C500.741 243.599 499.535 243.055 498.445 243.452Z" fill="#293D8A"/>
<path d="M489.659 221.379C489.205 221.541 488.712 221.763 488.216 222.055L491.893 230.857L493.131 230.34C494.205 229.892 494.725 228.668 494.301 227.584L492.368 222.621C491.949 221.544 490.747 220.985 489.659 221.379Z" fill="#293D8A"/>
<path d="M155.963 400.349V301.039C155.963 301.039 154.86 274.279 168.928 266.555C182.997 258.831 242.308 262.97 242.308 262.97V400.349H155.963Z" fill="#3A76C4"/>
<path d="M260.836 170.004C260.836 170.004 257.251 200.073 255.871 202.556C254.492 205.038 254.492 205.038 254.492 205.038L247.595 209.729C247.595 209.729 260.836 228.488 277.112 231.521C293.388 234.556 292.008 224.901 292.008 224.901L289.525 219.66L292.837 190.969C292.837 190.969 263.319 177.453 260.836 170.004Z" fill="#F57C83"/>
<path d="M239.043 212.212L249.801 207.521C249.801 207.521 256.699 218.832 272.699 225.453C288.699 232.073 288.975 228.212 289.801 225.453C290.629 222.694 289.525 219.66 289.525 219.66L290.709 210.001L297.108 212.133L319.319 391.797L262.216 394.556L239.043 212.212Z" fill="white"/>
<path d="M291.732 210.187C291.732 210.187 295.595 219.107 299.18 240.073C302.768 261.039 306.077 296.349 306.905 320.625C307.732 344.901 308.285 400.349 308.285 400.349C308.285 400.349 379.456 400.349 380.285 400.349C381.112 400.349 386.077 373.039 386.077 373.039C386.077 373.039 354.629 346.097 352.975 341.682C351.871 338.739 352.423 284.211 347.732 259.107C343.043 234.003 336.975 228.946 324.285 222.694C311.171 216.231 291.732 210.187 291.732 210.187Z" fill="#293D8A"/>
<path d="M329.249 368.739C328.881 368.739 328.583 368.441 328.583 368.073C328.583 366.101 328.232 338.078 327.895 310.978C327.555 283.874 327.204 255.847 327.204 253.866C327.204 253.497 327.503 253.199 327.871 253.199C328.239 253.199 328.537 253.497 328.537 253.866C328.537 255.838 328.888 283.861 329.227 310.961C329.565 338.065 329.916 366.091 329.916 368.073C329.916 368.441 329.619 368.739 329.249 368.739Z" fill="#788CBD"/>
<path d="M185.801 362.003L185.251 400.349H269.112C269.112 400.349 272.699 367.797 271.319 364.763C269.94 361.727 185.801 362.003 185.801 362.003Z" fill="#293D8A"/>
<path d="M290.868 208.03C287.227 206.694 282.552 204.484 279.135 201.729C273.148 196.902 269.313 191.153 266.828 185.513C269.595 188.658 272.656 191.38 275.732 194.004C279.628 197.326 285.473 199.936 291.691 200.902L290.868 208.03Z" fill="#945168"/>
<path d="M318.768 114.004C318.768 114.004 324.561 123.936 325.664 136.073C326.768 148.212 325.664 179.384 315.732 192.625C305.801 205.866 285.112 202.004 275.732 194.004C267.125 186.662 258.629 178.556 256.423 162.556C254.216 146.556 261.112 116.21 280.699 109.866C300.284 103.521 318.768 114.004 318.768 114.004Z" fill="#F57C83"/>
<path d="M343.653 383.006C343.653 383.006 342.68 383.006 341.2 382.966C340.853 382.953 340.467 382.966 340.065 382.953C338.64 382.913 336.907 382.874 335.16 382.821C334.773 382.806 334.373 382.793 333.987 382.779C332.253 382.739 330.773 382.953 329.387 382.874H329.347C329.053 382.859 328.627 382.899 328.28 382.913C328.107 382.927 327.947 382.939 327.84 382.927C327.04 382.779 326.88 382.594 326.013 382.207C324.893 381.699 309.732 378.314 297.399 378.393C285.08 378.446 274.027 379.286 272.227 377.779C270.413 376.246 269.32 360.767 279.84 359.753L292.773 364.659C292.773 364.659 322.307 361.154 333.133 369.139C343.987 377.126 343.653 383.006 343.653 383.006Z" fill="#F57C83"/>
<path d="M329.347 382.874C329.053 382.86 328.627 382.9 328.28 382.913C328.013 382.488 327.452 381.713 327.147 381.393C323.813 377.993 315.76 375.793 312.84 375.086C312.573 375.02 312.399 374.753 312.467 374.488C312.52 374.22 312.8 374.06 313.08 374.113C317.333 375.14 326.36 377.768 328.92 382.073C329 382.193 329.213 382.606 329.347 382.874Z" fill="#293D8A"/>
<path d="M335.164 382.819C334.777 382.81 334.377 382.799 333.991 382.777C330.351 376.139 324.396 374.234 317.037 371.867L316.601 371.722C316.349 371.637 316.196 371.353 316.284 371.089C316.369 370.837 316.64 370.683 316.917 370.77L317.34 370.914C325.121 373.411 331.383 375.418 335.164 382.819Z" fill="#293D8A"/>
<path d="M341.201 382.966C340.855 382.956 340.468 382.96 340.067 382.951C337.86 378.31 330.555 370.543 320.889 368.732C320.611 368.686 320.429 368.428 320.476 368.15C320.536 367.883 320.793 367.704 321.06 367.751C331.016 369.62 339.048 377.752 341.201 382.966Z" fill="#293D8A"/>
<path d="M263.043 148.901C263.043 148.901 269.112 146.003 273.388 137.866C277.664 129.729 277.112 122.418 277.112 122.418C277.112 122.418 284.836 121.177 296.423 124.625C308.008 128.073 321.801 132.763 333.388 126.142C344.975 119.521 344.975 108.901 339.319 104.487C332.985 99.5432 320.423 102.555 320.423 102.555C320.423 102.555 325.249 97.8659 322.629 95.1072C320.008 92.3485 310.492 95.9352 310.492 95.9352C310.492 95.9352 298.905 86.6939 276.975 87.7965C255.043 88.9005 244.56 104.211 243.319 121.314C242.077 138.418 248.285 155.521 248.285 155.521L263.043 148.901Z" fill="#293D8A"/>
<path d="M307.96 177.037C307.707 177.037 307.441 177.03 307.16 177.018C305.536 176.956 303.495 176.688 302.101 175.816C301.689 175.557 301.845 174.884 302.351 174.884C302.352 174.884 302.352 174.884 302.353 174.884C303.22 174.888 304.067 175.149 304.932 175.214C305.736 175.273 306.549 175.308 307.355 175.345C307.823 175.366 308.377 175.409 308.943 175.409C309.789 175.409 310.655 175.313 311.271 174.905C313.964 173.122 308.728 170.922 307.62 170.106C305.303 168.398 305.768 165.449 306.011 162.92C306.324 159.668 306.293 156.11 307.536 153.046C307.625 152.828 307.855 152.712 308.067 152.712C308.307 152.712 308.527 152.86 308.499 153.177C308.148 157.081 307.245 160.934 307 164.857C306.896 166.489 306.776 168.249 308.236 169.294C309.289 170.049 310.569 170.409 311.613 171.182C312.519 171.854 313.421 172.933 313.26 174.136C313.119 175.205 312.247 175.836 311.347 176.282C310.139 176.882 309.176 177.037 307.96 177.037Z" fill="#945168"/>
<path d="M318.812 162.22C318.4 164.545 316.709 166.189 315.033 165.893C313.359 165.597 312.335 163.471 312.745 161.147C313.157 158.821 314.848 157.176 316.524 157.472C318.199 157.768 319.224 159.895 318.812 162.22Z" fill="#293D8A"/>
<path d="M297.704 160.377C297.331 162.886 295.564 164.701 293.756 164.433C291.948 164.163 290.785 161.911 291.159 159.403C291.532 156.894 293.3 155.078 295.108 155.347C296.915 155.617 298.077 157.869 297.704 160.377Z" fill="#293D8A"/>
<path d="M313.897 152.634C315.187 152.851 316.488 152.629 317.788 152.721C318.101 152.742 318.409 152.789 318.723 152.819C318.944 152.839 318.308 152.753 318.617 152.804L318.816 152.837C318.979 152.866 319.141 152.9 319.301 152.938C319.579 153.006 319.847 153.11 320.124 153.172C320.376 153.226 320.656 153.285 320.909 153.273C321.052 153.254 321.192 153.236 321.335 153.216L321.067 153.265L321.595 153.208C322.335 153.034 322.791 152.178 322.584 151.463C322.524 151.258 322.433 151.071 322.303 150.902L322.133 150.687L322.289 150.866L322.119 150.64C322.045 150.517 321.948 150.418 321.824 150.345L321.512 150.108C321.171 149.87 320.721 149.731 320.316 149.627C319.547 149.429 318.739 149.327 317.947 149.323C317.157 149.319 316.379 149.402 315.599 149.51C314.911 149.605 314.145 149.839 313.587 150.254C313.156 150.575 312.891 150.987 312.965 151.551C313.028 152.018 313.396 152.549 313.897 152.634Z" fill="#293D8A"/>
<path d="M299.184 148.943C299.009 148.839 298.831 148.749 298.645 148.665C298.489 148.594 298.063 148.37 298.385 148.546L298.031 148.357C297.496 148.087 296.941 147.907 296.364 147.761C295.105 147.439 293.78 147.358 292.489 147.494C291.112 147.639 289.855 147.973 288.661 148.691C288.493 148.794 288.32 148.893 288.18 149.033C288.085 149.153 287.992 149.274 287.901 149.397L287.98 149.277C287.612 149.534 287.397 149.955 287.401 150.401C287.404 150.829 287.627 151.186 287.999 151.393C288.448 151.643 288.875 151.523 289.339 151.405C289.105 151.405 288.872 151.405 288.64 151.405C289.023 151.463 289.292 151.479 289.679 151.394C289.693 151.391 290.051 151.302 289.815 151.351C289.593 151.399 290.191 151.306 290.256 151.297C290.332 151.286 290.747 151.245 290.308 151.287L290.551 151.259C290.757 151.234 290.967 151.207 291.175 151.191C292.085 151.118 292.993 151.077 293.905 151.047C294.752 151.019 295.615 151.013 296.46 151.049C296.824 151.065 297.184 151.077 297.548 151.087C297.751 151.093 297.665 151.125 297.525 151.081L297.752 151.139C297.903 151.181 298.051 151.23 298.196 151.286C298.785 151.51 299.491 151.085 299.708 150.543C299.945 149.954 299.744 149.277 299.184 148.943Z" fill="#293D8A"/>
<path d="M305.733 187.291C307 184.746 309.303 182.881 311.965 181.681C309.655 181.446 298.741 180.435 295.988 181.999C292.903 183.75 296.559 190.783 302.937 191.137C303.608 191.174 304.217 191.119 304.797 191.029C304.849 189.745 305.145 188.474 305.733 187.291Z" fill="#293D8A"/>
<path d="M255.319 172.488C255.319 172.488 256.423 176.764 262.767 181.729C269.112 186.694 278.308 190.326 278.308 190.326L279.043 187.108C279.043 187.108 269.525 182.969 265.112 178.418C260.699 173.866 260.147 171.383 260.147 171.383L255.319 172.488Z" fill="#D6DCEB"/>
<path d="M280.147 184.727C285.253 184.489 288.103 188.527 288.459 191.139C288.815 193.752 286.361 196.681 280.621 194.108C273.492 190.912 275.041 184.964 280.147 184.727Z" fill="#293D8A"/>
<path d="M259.319 140.901C259.319 140.901 261.524 125.048 272.147 114.28C292.423 93.7291 309.664 94.9691 309.664 94.9691C309.664 94.9691 309.525 92.0731 303.043 89.8664C296.956 87.7944 294.216 88.9011 294.216 88.9011C294.216 88.9011 277.525 90.2798 263.457 105.866C249.388 121.453 247.871 141.314 247.871 141.314L259.319 140.901Z" fill="#D6DCEB"/>
<path d="M257.801 138.969C244.519 136.718 237.112 147.107 236.56 157.59C236.008 168.073 243.625 176.042 253.801 175.245C276.699 173.453 274.077 141.729 257.801 138.969Z" fill="white"/>
<path d="M251.188 165.059C247.681 165.059 244.717 163.296 243.024 160.193C241.209 156.869 241.361 152.777 243.412 149.768C243.568 149.543 243.877 149.483 244.107 149.637C244.335 149.793 244.395 150.104 244.239 150.332C242.397 153.033 242.265 156.716 243.901 159.713C245.455 162.559 248.196 164.171 251.443 164.055C254.477 163.973 257.049 162.585 258.685 160.145C260.552 157.36 260.981 153.515 259.779 150.349C258.585 147.208 255.313 145.067 252.339 145.456C252.069 145.491 251.813 145.3 251.777 145.025C251.74 144.752 251.932 144.501 252.207 144.464C255.687 144 259.341 146.379 260.713 149.993C262.028 153.453 261.557 157.656 259.516 160.701C257.695 163.419 254.837 164.964 251.469 165.055L251.188 165.059Z" fill="#7588BB"/>
<path d="M241.525 208.349C241.525 208.349 201.251 218.28 187.181 234.28C173.112 250.28 166.492 329.177 166.216 343.797C165.94 358.418 176.147 364.488 182.216 368.625C188.285 372.764 215.043 380.212 236.56 381.316C258.077 382.418 278.492 381.316 278.492 381.316C278.492 381.316 278.423 376.625 281.732 369.728C284.803 363.332 288.699 362.004 288.699 362.004L270.216 355.384C270.216 355.384 266.98 297.392 261.94 269.316C256.147 237.038 241.525 208.349 241.525 208.349Z" fill="#293D8A"/>
<path d="M308.285 346.118L308.015 346.061C307.677 345.911 307.525 345.518 307.675 345.182C311.449 336.667 315.359 319.953 317.561 308.226L317.741 307.278C318.408 303.829 319.237 299.54 317.583 296.578C316.739 295.068 314.833 291.79 313 288.64C311.097 285.369 309.3 282.278 308.801 281.357C307.831 279.555 310.889 274.745 315.317 268.146C316.512 266.362 317.547 264.822 318.149 263.78C319.728 261.049 318.676 258.547 317.46 255.651L317.047 254.654C315.944 251.946 314.689 249.234 313.479 246.612C312.984 245.541 312.488 244.467 312 243.389C311.352 241.963 310.703 240.513 310.044 239.046C306.145 230.356 302.115 221.37 296.952 212.689C296.764 212.373 296.868 211.964 297.184 211.776C297.501 211.589 297.909 211.692 298.099 212.009C303.299 220.754 307.345 229.776 311.26 238.5C311.917 239.966 312.567 241.414 313.213 242.84C313.701 243.914 314.195 244.985 314.688 246.053C315.907 248.689 317.167 251.415 318.281 254.151L318.689 255.136C319.931 258.089 321.213 261.144 319.303 264.446C318.677 265.529 317.633 267.086 316.424 268.887C314.116 272.329 309.311 279.491 309.975 280.722C310.463 281.626 312.255 284.708 314.152 287.969C315.989 291.128 317.9 294.413 318.747 295.927C320.64 299.314 319.759 303.87 319.052 307.531L318.871 308.472C318.068 312.742 313.82 334.608 308.895 345.721C308.784 345.972 308.54 346.118 308.285 346.118Z" fill="#788CBD"/>
<path d="M268.975 348.463C268.803 348.463 268.631 348.398 268.501 348.267C265.367 345.107 250.249 318.932 249.124 314.01C248.508 311.315 250.055 304.48 251.551 297.87C252.709 292.748 253.908 287.452 253.567 286.019C253.057 283.876 249.192 280.718 245.453 277.664C240.937 273.976 236.268 270.16 235.364 266.724C234.336 262.819 235.215 238.37 235.796 222.192C236.005 216.375 236.171 211.78 236.169 210.142C236.169 209.774 236.468 209.475 236.836 209.475C237.204 209.475 237.503 209.772 237.503 210.14C237.504 211.804 237.339 216.41 237.128 222.24C236.585 237.362 235.676 262.668 236.653 266.386C237.448 269.402 242.149 273.243 246.297 276.632C250.388 279.974 254.251 283.13 254.864 285.711C255.276 287.444 254.152 292.412 252.851 298.163C251.456 304.327 249.876 311.312 250.424 313.712C251.528 318.539 266.369 344.224 269.448 347.326C269.707 347.588 269.705 348.01 269.444 348.268C269.313 348.398 269.144 348.463 268.975 348.463Z" fill="#788CBD"/>
<path d="M214.768 337.016L214.675 337.009C214.309 336.957 214.056 336.62 214.107 336.256C214.596 332.788 222.249 263.721 222.6 258.432C222.625 258.062 222.943 257.774 223.311 257.81C223.677 257.834 223.955 258.153 223.931 258.52C223.579 263.818 215.917 332.97 215.427 336.442C215.38 336.774 215.095 337.016 214.768 337.016Z" fill="#788CBD"/>
<path d="M269.664 355.773L269.413 355.725C267.717 355.039 260.225 352.511 250.74 349.313C231.596 342.856 205.376 334.015 200.391 331.424C200.064 331.255 199.937 330.852 200.107 330.525C200.276 330.197 200.676 330.067 201.005 330.241C205.9 332.784 233.141 341.971 251.167 348.048C260.673 351.256 268.181 353.787 269.915 354.489C270.256 354.628 270.42 355.016 270.281 355.357C270.176 355.616 269.927 355.773 269.664 355.773Z" fill="#788CBD"/>
<path d="M260.457 383.274C243.609 383.274 210.945 380.237 186.132 371.461C185.784 371.337 185.603 370.957 185.725 370.609C185.847 370.264 186.232 370.081 186.576 370.204C217.923 381.292 261.773 383.185 269.932 381.353C270.291 381.276 270.647 381.5 270.728 381.858C270.809 382.217 270.583 382.574 270.224 382.656C268.457 383.05 265.043 383.274 260.457 383.274Z" fill="#788CBD"/>
<path d="M67.6131 217.651C72.8437 222.251 79.4683 225.201 84.0584 230.521C85.864 232.614 87.4864 234.842 89.1636 237.037C90.384 238.634 93.6413 241.283 94.1693 243.291C94.4027 244.175 94.3533 242.978 94.1187 242.091L94.08 241.981C93.6213 237.915 93.2933 233.834 93.1507 229.745C93.008 225.666 93.2627 221.571 93.0067 217.499C92.6467 211.754 90.8533 206.191 86.1573 202.593C83.862 200.833 80.9125 199.762 78.8021 197.81C76.7995 195.957 77.6031 193.834 78.7807 191.767C79.8823 189.833 81.2183 187.933 81.6473 185.706C82.1355 183.175 81.1844 180.565 79.9005 178.41C77.1693 173.823 71.1104 168.71 65.3735 169.395C60.588 169.967 60.0459 175.487 60.114 179.333C60.1807 183.071 60.5505 186.798 60.586 190.539C60.6235 194.382 59.9697 198.153 59.9151 201.978C59.8224 208.486 62.8292 213.445 67.6131 217.651Z" fill="#60A6DF"/>
<path d="M116.212 277.361C117.668 273.887 119.339 270.641 121.393 267.482C124.212 263.149 127.339 258.926 129.231 254.073C131.164 249.118 130.88 243.819 131.071 238.601C131.209 234.767 132.349 230.943 132.041 227.099C131.895 225.255 130.832 222.273 128.447 222.578C126.591 222.815 125.488 225.117 124.775 226.585C123.529 229.147 122.667 231.881 121.741 234.569C121.381 235.621 121.036 236.691 120.58 237.706C120.315 238.297 119.471 239.737 118.675 239.541C117.319 239.206 118.549 233.671 118.751 232.691C119.763 227.769 121.287 223.194 121.499 218.129C121.805 210.785 121.235 202.042 114.052 198.026C112.173 196.977 109.795 196.351 108.011 197.922C106.251 199.47 105.753 202.155 105.492 204.365C104.691 211.147 106.287 217.57 108.46 223.951C110.255 229.221 112.393 234.658 112.549 240.293C112.7 245.717 109.877 250.523 108.553 255.647C106.443 263.813 106.879 268.142 106.869 270.786C106.855 274.099 106.976 277.377 107.217 280.679C107.441 283.715 107.704 286.753 108.075 289.774C108.151 290.386 108.22 291.025 108.301 291.663C107.135 288.854 106.727 285.637 105.76 282.814C104.044 277.795 102.049 272.881 100.401 267.838C99.04 263.671 97.7547 259.477 95.956 255.471C94.2707 251.713 92.2347 247.741 89.0896 244.983C87.1885 243.317 84.8839 242.342 82.3412 242.362C80.7151 242.374 79.2536 242.937 77.7005 243.347C75.7891 243.853 74.2855 243.678 72.7131 242.47C67.5651 238.513 65.9995 231.418 62.1885 226.407C59.3459 222.67 52.6016 216.299 47.6421 220.375C45.0115 222.537 44.286 226.714 44.424 229.917C44.5973 233.934 46.3531 237.609 48.4443 240.969C50.6683 244.541 53.5391 247.739 55.5828 251.413C56.7912 253.582 56.9803 255.661 56.788 258.109C56.6079 260.414 56.4063 262.647 57.1921 264.871C59.5521 271.55 66.9213 270.618 72.6527 270.793C76.6631 270.914 80.9656 271.511 84.7729 272.794C89.1735 274.275 92.036 277.139 93.6093 281.491C94.7467 284.642 95.356 288.218 97.5 290.894C98.508 292.153 99.8427 293.082 101.311 293.731C103.545 294.718 110.36 295.15 110.411 294.527C110.579 292.443 111.567 290.245 112.185 288.267C113.345 284.559 114.709 280.942 116.212 277.361Z" fill="#60A6DF"/>
<path d="M147.853 276.102C147.26 272.283 147.373 268.075 145.565 264.569C145.436 264.318 145.095 264.254 144.861 264.383C143.565 265.102 143.512 267.195 143.405 268.478C143.231 270.606 143.361 272.739 143.099 274.862C142.64 278.59 141.779 282.433 140.435 285.946C138.916 289.922 136.152 292.175 132.139 293.417C129.56 294.213 127.031 294.907 124.879 296.618C122.951 298.151 121.612 300.265 120.619 302.49C117.94 308.499 116.664 315.217 115.421 321.637C114.585 325.959 113.903 330.302 112.853 334.582C111.804 338.858 110.677 343.113 110.076 347.482C109.975 347.702 109.867 347.921 109.773 348.143C109.499 348.797 110.52 349.15 110.872 348.606C115.016 342.229 120.063 336.505 126.948 332.993C130.057 331.407 134.188 331.078 136.781 328.586C138.755 326.69 139.025 323.797 138.731 321.218C138.343 317.83 136.72 315.042 135.028 312.155C134.1 310.569 133.003 308.87 133.377 306.942C133.731 305.123 135.243 303.787 136.743 302.855C139.605 301.078 142.952 300.278 145.296 297.717C147.473 295.338 148.68 292.378 148.921 289.173C149.243 284.901 148.507 280.321 147.853 276.102Z" fill="#60A6DF"/>
<path d="M91.3653 298.12C87.7099 293.41 83.2969 289.349 78.3328 286.052C75.6839 284.293 69.4344 280.822 68.1735 286.012C67.4339 289.053 70.4104 292.045 72.3693 293.952C75.3136 296.817 78.7188 299.289 81.2027 302.592C78.1271 303.572 74.9136 303.764 72.2412 305.889C69.0776 308.408 67.6584 313.269 70.7953 316.353C72.324 317.856 74.3511 318.778 76.2547 319.701C78.7292 320.898 81.2495 321.985 83.786 323.045C89.2631 325.332 94.8093 327.653 99.48 331.401C104.24 335.22 108.716 341.677 109.093 347.908C109.131 348.502 108.904 347.961 109.259 347.689C109.453 347.864 110.107 347.55 110.103 347.204C110.005 337.957 108.344 329.154 104.565 320.685C101.064 312.833 96.6453 304.922 91.3653 298.12Z" fill="#60A6DF"/>
<path d="M78.7385 212.048C80.7552 216.234 82.864 220.324 85.1031 224.405C87.2579 228.334 89.4109 232.234 91.0227 236.426C93.008 241.588 95.0893 246.672 97.188 251.788C99.3693 257.105 101.319 262.524 102.883 268.054C105.936 278.853 108.204 289.968 109.325 301.136C109.896 306.816 110.155 312.529 109.999 318.234C109.876 322.694 109.373 327.105 108.955 331.542C108.519 336.157 108.204 340.828 108.591 345.46C108.913 349.332 109.529 353.934 112.535 356.697C113.121 357.238 113.955 356.564 113.613 355.865C110.043 348.542 110.243 340.558 110.925 332.618C111.303 328.234 111.825 323.874 111.973 319.474C112.161 313.876 111.941 308.266 111.415 302.69C110.379 291.729 108.193 280.898 105.359 270.269C103.904 264.82 102.105 259.476 100.033 254.228C97.9547 248.97 95.556 243.857 93.5427 238.573C89.9027 229.017 84.3536 220.544 79.4396 211.638C79.1844 211.176 78.514 211.582 78.7385 212.048Z" fill="#3E579E"/>
<path d="M109.489 290.188C110.067 283.229 110.683 276.528 113.029 269.889C114.123 266.793 115.449 263.783 116.505 260.675C117.377 258.105 118.683 254.583 118.011 251.852C117.936 251.547 117.492 251.563 117.408 251.852C116.959 253.412 117.008 255.123 116.685 256.721C116.369 258.277 115.949 259.808 115.465 261.32C114.436 264.536 113.091 267.617 111.925 270.783C109.675 276.897 108.519 283.671 109.011 290.188C109.033 290.496 109.464 290.496 109.489 290.188Z" fill="#3E579E"/>
<path d="M69.164 250.195C71.9265 256.869 80.2303 257.254 86.2781 258.749C90.5973 259.815 93.7853 262.697 96.0747 266.437C98.5813 270.529 100.276 275.333 101.669 279.899L101.751 279.878C100.059 271.879 97.6347 262.249 89.3896 258.527C82.7823 255.545 74.0755 257.043 69.8495 249.906C69.6417 249.555 68.9969 249.791 69.164 250.195Z" fill="#3E579E"/>
<path d="M105.123 289.131C105.452 289.575 105.753 290.039 106.092 290.474C106.26 290.69 106.431 290.893 106.643 291.066C106.86 291.243 107.113 291.463 107.411 291.458C107.535 291.455 107.621 291.318 107.555 291.207C107.419 290.985 107.172 290.85 106.98 290.681C106.781 290.506 106.58 290.334 106.388 290.154C106.001 289.789 105.648 289.391 105.271 289.018L105.123 289.131Z" fill="#3E579E"/>
<path d="M87.8495 310.301C92.6147 314.212 97.0107 318.84 100.503 323.911C102.172 326.335 103.713 328.9 105.111 331.489C106.637 334.319 107.639 337.308 108.835 340.275C108.925 340.5 109.337 340.505 109.305 340.212C108.644 333.936 104.669 328.556 101.485 323.335C99.832 320.623 97.776 318.436 95.5653 316.175C93.2827 313.839 90.956 311.629 88.2797 309.745C87.9541 309.516 87.5385 310.045 87.8495 310.301Z" fill="#3E579E"/>
<path d="M125.791 302.913C123.496 304.213 123.421 307.838 123.376 310.153C123.289 314.599 124.391 318.775 122.439 323.013C120.676 326.841 117.86 330.037 115.647 333.591C113.573 336.918 111.529 341.171 111.575 345.177C111.577 345.407 111.932 345.539 112.04 345.303C112.875 343.485 113.175 341.419 113.773 339.514C114.445 337.371 115.384 335.426 116.6 333.542C118.731 330.241 121.345 327.235 123.075 323.685C124.896 319.942 124.629 316.235 124.508 312.181C124.432 309.595 124.173 305.441 126.257 303.518C126.585 303.217 126.167 302.701 125.791 302.913Z" fill="#3E579E"/>
<path d="M110.447 345.59C101.203 345.462 83.5948 345.361 83.5948 345.361L87.9521 377.71C88.9317 384.987 95.144 390.418 102.487 390.418H110.079H110.813H118.404C125.748 390.418 131.96 384.987 132.94 377.71L137.297 345.361C137.297 345.361 119.689 345.462 110.447 345.59Z" fill="white"/>
<path d="M557.251 286.143L504.513 390.602L350.768 391.707L398.216 284.671L557.251 286.143Z" fill="#F5F6F9"/>
<path d="M248.728 391.055L248.757 382.695H348.285L394.077 282.28H553.249L557.251 286.143H401.756L354.169 390.971C354.169 390.971 248.728 390.78 248.728 391.055Z" fill="#D1D8E8"/>
<path d="M477.413 343.785C475.676 348.995 466.249 353.019 456.357 352.771C446.465 352.525 439.855 348.101 441.591 342.889C443.328 337.679 452.755 333.655 462.647 333.903C472.539 334.151 479.151 338.575 477.413 343.785Z" fill="#D1D8E8"/>
<path d="M354.171 391.637L353.895 391.577C353.56 391.425 353.411 391.03 353.563 390.694L401.327 285.475H557.251C557.62 285.475 557.917 285.773 557.917 286.142C557.917 286.51 557.62 286.809 557.251 286.809H402.185L354.777 391.246C354.667 391.49 354.423 391.637 354.171 391.637Z" fill="white"/>
<path d="M58.9052 439.521H241.801V398.97H58.9052V439.521Z" fill="#4F68A9"/>
<path d="M240.756 439.521H569.823V398.97H240.756V439.521Z" fill="#6F83B8"/>
<path d="M58.9052 406.418H240.756V398.97H58.9052V406.418Z" fill="#3D5192"/>
<path d="M569.823 406.418H240.756V398.97H569.823V406.418Z" fill="#5165A1"/>
<path d="M249.801 400.901H50.0776V390.971H249.801V400.901Z" fill="#647AB4"/>
<path d="M577.823 400.901H248.757V390.971H577.823V400.901Z" fill="#8E9EC7"/>
<path d="M195.625 178.209H131.06C127.064 178.209 123.825 174.97 123.825 170.974V138.741C123.825 134.746 127.064 131.506 131.06 131.506H195.625C199.62 131.506 202.86 134.746 202.86 138.741V170.974C202.86 174.97 199.62 178.209 195.625 178.209Z" fill="white"/>
<path d="M221.26 154.858L197.011 144.626V165.09L221.26 154.858Z" fill="white"/>
<path d="M152.492 154.858C152.492 157.325 150.492 159.323 148.025 159.323C145.559 159.323 143.559 157.325 143.559 154.858C143.559 152.39 145.559 150.391 148.025 150.391C150.492 150.391 152.492 152.39 152.492 154.858Z" fill="#293D8A"/>
<path d="M167.809 154.858C167.809 157.325 165.809 159.323 163.343 159.323C160.876 159.323 158.876 157.325 158.876 154.858C158.876 152.39 160.876 150.391 163.343 150.391C165.809 150.391 167.809 152.39 167.809 154.858Z" fill="#293D8A"/>
<path d="M183.127 154.858C183.127 157.325 181.127 159.323 178.66 159.323C176.193 159.323 174.193 157.325 174.193 154.858C174.193 152.39 176.193 150.391 178.66 150.391C181.127 150.391 183.127 152.39 183.127 154.858Z" fill="#293D8A"/>
<path d="M524.331 32.3489H375.273C365.7 32.3489 357.94 40.1089 357.94 49.6822V120.396C357.94 129.968 365.7 137.729 375.273 137.729H388.633C389.009 144.138 388.091 153.674 382.737 165.866C399.959 157.922 409.876 145.994 415.056 137.729H524.331C533.903 137.729 541.664 129.968 541.664 120.396V49.6822C541.664 40.1089 533.903 32.3489 524.331 32.3489Z" fill="#599FDC"/>
<path d="M460.744 66.0498H386.813C384.783 66.0498 383.135 64.4032 383.135 62.3725C383.135 60.3405 384.783 58.6938 386.813 58.6938H460.744C462.776 58.6938 464.423 60.3405 464.423 62.3725C464.423 64.4032 462.776 66.0498 460.744 66.0498Z" fill="white"/>
<path d="M513.756 87.4756H385.388C384.144 87.4756 383.135 86.4676 383.135 85.2236C383.135 83.9796 384.144 82.9702 385.388 82.9702H513.756C515 82.9702 516.009 83.9796 516.009 85.2236C516.009 86.4676 515 87.4756 513.756 87.4756Z" fill="#C3E4F7"/>
<path d="M513.756 99.9824H385.388C384.144 99.9824 383.135 98.9731 383.135 97.7291C383.135 96.4851 384.144 95.4757 385.388 95.4757H513.756C515 95.4757 516.009 96.4851 516.009 97.7291C516.009 98.9731 515 99.9824 513.756 99.9824Z" fill="#C3E4F7"/>
<path d="M485.753 113.315H385.388C384.144 113.315 383.135 112.306 383.135 111.062C383.135 109.818 384.144 108.809 385.388 108.809H485.753C486.999 108.809 488.008 109.818 488.008 111.062C488.008 112.306 486.999 113.315 485.753 113.315Z" fill="#C3E4F7"/>
<path d="M512.748 66.0498H477.48C475.449 66.0498 473.801 64.4032 473.801 62.3725C473.801 60.3405 475.449 58.6938 477.48 58.6938H512.748C514.78 58.6938 516.425 60.3405 516.425 62.3725C516.425 64.4032 514.78 66.0498 512.748 66.0498Z" fill="white"/>
<path d="M423.859 228.672H383.813C382.34 228.672 381.147 227.477 381.147 226.005V198.648C381.147 197.176 382.34 195.981 383.813 195.981H423.859C425.332 195.981 426.525 197.176 426.525 198.648V226.005C426.525 227.477 425.332 228.672 423.859 228.672Z" fill="white"/>
<path d="M404.113 217.212C403.888 217.212 403.661 217.135 403.476 216.983L381.681 198.981C381.256 198.629 381.196 198 381.548 197.573C381.901 197.148 382.532 197.089 382.955 197.44L404.096 214.9L424.697 196.973C425.113 196.612 425.745 196.656 426.108 197.072C426.471 197.489 426.427 198.12 426.009 198.483L404.769 216.965C404.581 217.129 404.347 217.212 404.113 217.212Z" fill="#647AB4"/>
<path d="M382.319 227.925C382.071 227.925 381.823 227.833 381.629 227.649C381.229 227.267 381.213 226.635 381.595 226.235L396.837 210.211C397.215 209.81 397.851 209.794 398.249 210.175C398.651 210.557 398.667 211.189 398.285 211.59L383.043 227.614C382.847 227.821 382.583 227.925 382.319 227.925Z" fill="#647AB4"/>
<path d="M425.353 227.338C425.097 227.338 424.841 227.241 424.645 227.045L409.464 211.822C409.075 211.431 409.075 210.797 409.467 210.407C409.859 210.017 410.492 210.018 410.881 210.409L426.063 225.631C426.452 226.023 426.452 226.657 426.06 227.046C425.864 227.241 425.609 227.338 425.353 227.338Z" fill="#647AB4"/>
<path d="M441.985 194.969C441.985 202.358 435.996 208.349 428.607 208.349C421.217 208.349 415.228 202.358 415.228 194.969C415.228 187.581 421.217 181.59 428.607 181.59C435.996 181.59 441.985 187.581 441.985 194.969Z" fill="#F1494A"/>
<path d="M425.379 194.935L425.347 194.567C425.752 194.749 426.104 194.983 426.403 195.271C426.701 195.559 426.931 195.874 427.091 196.215C427.251 196.557 427.331 196.909 427.331 197.271C427.331 197.879 427.16 198.439 426.819 198.951C426.488 199.453 426.04 199.858 425.475 200.167C424.909 200.466 424.28 200.615 423.587 200.615C422.893 200.615 422.264 200.466 421.699 200.167C421.133 199.858 420.68 199.453 420.339 198.951C420.008 198.439 419.843 197.879 419.843 197.271C419.843 196.781 419.944 196.359 420.147 196.007C420.36 195.645 420.621 195.341 420.931 195.095C421.251 194.85 421.565 194.647 421.875 194.487L421.747 194.935C421.48 194.829 421.219 194.679 420.963 194.487C420.717 194.285 420.515 194.029 420.355 193.719C420.195 193.41 420.115 193.047 420.115 192.631C420.115 192.034 420.269 191.495 420.579 191.015C420.888 190.525 421.304 190.135 421.827 189.847C422.36 189.559 422.947 189.415 423.587 189.415C424.237 189.415 424.819 189.559 425.331 189.847C425.853 190.135 426.269 190.525 426.579 191.015C426.888 191.495 427.043 192.034 427.043 192.631C427.043 193.09 426.952 193.474 426.771 193.783C426.589 194.093 426.371 194.338 426.115 194.519C425.859 194.701 425.613 194.839 425.379 194.935ZM422.035 192.663C422.035 192.951 422.099 193.207 422.227 193.431C422.365 193.655 422.552 193.837 422.787 193.975C423.021 194.103 423.288 194.167 423.587 194.167C423.885 194.167 424.147 194.103 424.371 193.975C424.605 193.837 424.787 193.655 424.915 193.431C425.053 193.207 425.123 192.951 425.123 192.663C425.123 192.237 424.973 191.885 424.675 191.607C424.387 191.319 424.024 191.175 423.587 191.175C423.139 191.175 422.765 191.319 422.467 191.607C422.179 191.885 422.035 192.237 422.035 192.663ZM423.587 198.855C424.099 198.855 424.531 198.701 424.883 198.391C425.235 198.071 425.411 197.687 425.411 197.239C425.411 196.93 425.331 196.653 425.171 196.407C425.011 196.162 424.792 195.97 424.515 195.831C424.237 195.682 423.928 195.607 423.587 195.607C423.245 195.607 422.936 195.682 422.659 195.831C422.381 195.97 422.163 196.162 422.003 196.407C421.843 196.653 421.763 196.93 421.763 197.239C421.763 197.687 421.939 198.071 422.291 198.391C422.643 198.701 423.075 198.855 423.587 198.855ZM431.824 200.775C431.43 200.775 431.008 200.717 430.56 200.599C430.112 200.471 429.744 200.29 429.456 200.055C429.318 199.938 429.206 199.789 429.12 199.607C429.046 199.415 429.008 199.234 429.008 199.063C429.008 198.882 429.083 198.711 429.232 198.551C429.392 198.391 429.616 198.311 429.904 198.311C430.096 198.311 430.336 198.413 430.624 198.615C430.795 198.722 430.982 198.818 431.184 198.903C431.387 198.989 431.595 199.031 431.808 199.031C432.32 199.031 432.763 198.941 433.136 198.759C433.51 198.567 433.798 198.306 434 197.975C434.203 197.645 434.304 197.255 434.304 196.807C434.304 196.402 434.208 196.055 434.016 195.767C433.835 195.479 433.59 195.255 433.28 195.095C432.982 194.935 432.656 194.855 432.304 194.855C431.974 194.855 431.686 194.909 431.44 195.015C431.195 195.122 430.971 195.234 430.768 195.351C430.566 195.458 430.363 195.511 430.16 195.511C429.808 195.511 429.547 195.437 429.376 195.287C429.206 195.127 429.099 194.941 429.056 194.727C429.014 194.514 429.003 194.322 429.024 194.151L429.52 190.263C429.563 190.039 429.67 189.858 429.84 189.719C430.022 189.57 430.235 189.495 430.48 189.495H435.104C435.36 189.495 435.574 189.581 435.744 189.751C435.915 189.922 436 190.135 436 190.391C436 190.637 435.915 190.845 435.744 191.015C435.574 191.175 435.36 191.255 435.104 191.255H430.976L431.152 191.111L430.72 194.359L430.512 193.751C430.576 193.645 430.715 193.543 430.928 193.447C431.142 193.351 431.387 193.271 431.664 193.207C431.942 193.133 432.214 193.095 432.48 193.095C433.195 193.095 433.835 193.261 434.4 193.591C434.966 193.911 435.408 194.354 435.728 194.919C436.059 195.474 436.224 196.103 436.224 196.807C436.224 197.607 436.043 198.306 435.68 198.903C435.318 199.501 434.806 199.965 434.144 200.295C433.494 200.615 432.72 200.775 431.824 200.775Z" fill="white"/>
<path d="M562.984 190.045H484.823C481.877 190.045 479.489 187.657 479.489 184.712V172.482C479.489 169.537 481.877 167.149 484.823 167.149H562.984C565.929 167.149 568.317 169.537 568.317 172.482V184.712C568.317 187.657 565.929 190.045 562.984 190.045Z" fill="#293D8A"/>
<path d="M490.465 184.601C490.115 184.601 489.833 184.477 489.62 184.226C489.407 183.977 489.313 183.663 489.34 183.289L489.676 180.323L489.64 180.174L489.452 180.211L487.012 181.974C486.712 182.199 486.399 182.282 486.073 182.218C485.749 182.157 485.487 181.962 485.287 181.637C485.061 181.237 485.017 180.886 485.155 180.586C485.291 180.286 485.524 180.074 485.848 179.949L488.588 178.71L488.701 178.598L488.588 178.485L485.848 177.246C485.499 177.097 485.273 176.859 485.175 176.534C485.073 176.209 485.112 175.883 485.287 175.558C485.487 175.233 485.749 175.039 486.073 174.975C486.399 174.914 486.712 174.983 487.012 175.183L489.452 176.985L489.64 177.021L489.676 176.871L489.34 173.906C489.313 173.531 489.413 173.218 489.64 172.969C489.865 172.718 490.165 172.594 490.54 172.594C490.891 172.594 491.177 172.718 491.403 172.969C491.628 173.218 491.716 173.531 491.665 173.906L491.328 176.871L491.365 177.021L491.555 176.985L493.993 175.221C494.292 174.994 494.612 174.914 494.951 174.975C495.287 175.039 495.543 175.233 495.719 175.558C495.944 175.958 495.988 176.309 495.848 176.609C495.712 176.909 495.48 177.122 495.155 177.246L492.416 178.485L492.304 178.598L492.416 178.71L495.155 179.949C495.507 180.098 495.737 180.337 495.848 180.661C495.961 180.987 495.919 181.313 495.719 181.637C495.543 181.962 495.287 182.157 494.951 182.218C494.612 182.282 494.292 182.211 493.993 182.013L491.555 180.211L491.365 180.174L491.328 180.323L491.665 183.289C491.716 183.663 491.621 183.977 491.385 184.226C491.145 184.477 490.84 184.601 490.465 184.601Z" fill="white"/>
<path d="M506.631 184.601C506.281 184.601 506 184.477 505.787 184.226C505.573 183.977 505.48 183.663 505.505 183.289L505.843 180.323L505.805 180.174L505.619 180.211L503.179 181.974C502.879 182.199 502.565 182.282 502.24 182.218C501.916 182.157 501.653 181.962 501.453 181.637C501.228 181.237 501.184 180.886 501.321 180.586C501.457 180.286 501.689 180.074 502.015 179.949L504.755 178.71L504.868 178.598L504.755 178.485L502.015 177.246C501.665 177.097 501.44 176.859 501.34 176.534C501.24 176.209 501.279 175.883 501.453 175.558C501.653 175.233 501.916 175.039 502.24 174.975C502.565 174.914 502.879 174.983 503.179 175.183L505.619 176.985L505.805 177.021L505.843 176.871L505.505 173.906C505.48 173.531 505.58 173.218 505.805 172.969C506.031 172.718 506.331 172.594 506.707 172.594C507.057 172.594 507.344 172.718 507.569 172.969C507.795 173.218 507.883 173.531 507.832 173.906L507.495 176.871L507.532 177.021L507.72 176.985L510.159 175.221C510.457 174.994 510.779 174.914 511.116 174.975C511.453 175.039 511.709 175.233 511.885 175.558C512.109 175.958 512.153 176.309 512.015 176.609C511.879 176.909 511.647 177.122 511.321 177.246L508.583 178.485L508.471 178.598L508.583 178.71L511.321 179.949C511.672 180.098 511.904 180.337 512.015 180.661C512.128 180.987 512.085 181.313 511.885 181.637C511.709 181.962 511.453 182.157 511.116 182.218C510.779 182.282 510.457 182.211 510.159 182.013L507.72 180.211L507.532 180.174L507.495 180.323L507.832 183.289C507.883 183.663 507.788 183.977 507.551 184.226C507.312 184.477 507.007 184.601 506.631 184.601Z" fill="white"/>
<path d="M522.797 184.601C522.448 184.601 522.165 184.477 521.953 184.226C521.739 183.977 521.645 183.663 521.672 183.289L522.009 180.323L521.972 180.174L521.785 180.211L519.344 181.974C519.044 182.199 518.731 182.282 518.407 182.218C518.081 182.157 517.819 181.962 517.62 181.637C517.393 181.237 517.349 180.886 517.488 180.586C517.624 180.286 517.856 180.074 518.181 179.949L520.921 178.71L521.033 178.598L520.921 178.485L518.181 177.246C517.832 177.097 517.605 176.859 517.507 176.534C517.407 176.209 517.445 175.883 517.62 175.558C517.819 175.233 518.081 175.039 518.407 174.975C518.731 174.914 519.044 174.983 519.344 175.183L521.785 176.985L521.972 177.021L522.009 176.871L521.672 173.906C521.645 173.531 521.747 173.218 521.972 172.969C522.197 172.718 522.497 172.594 522.873 172.594C523.224 172.594 523.509 172.718 523.735 172.969C523.961 173.218 524.049 173.531 523.997 173.906L523.661 176.871L523.699 177.021L523.887 176.985L526.325 175.221C526.624 174.994 526.944 174.914 527.283 174.975C527.62 175.039 527.876 175.233 528.052 175.558C528.276 175.958 528.32 176.309 528.181 176.609C528.045 176.909 527.812 177.122 527.488 177.246L524.749 178.485L524.636 178.598L524.749 178.71L527.488 179.949C527.839 180.098 528.069 180.337 528.181 180.661C528.293 180.987 528.251 181.313 528.052 181.637C527.876 181.962 527.62 182.157 527.283 182.218C526.944 182.282 526.624 182.211 526.325 182.013L523.887 180.211L523.699 180.174L523.661 180.323L523.997 183.289C524.049 183.663 523.953 183.977 523.717 184.226C523.479 184.477 523.172 184.601 522.797 184.601Z" fill="white"/>
<path d="M538.963 184.601C538.613 184.601 538.332 184.477 538.12 184.226C537.905 183.977 537.812 183.663 537.839 183.289L538.176 180.323L538.137 180.174L537.951 180.211L535.511 181.974C535.211 182.199 534.897 182.282 534.572 182.218C534.248 182.157 533.985 181.962 533.785 181.637C533.56 181.237 533.516 180.886 533.653 180.586C533.789 180.286 534.023 180.074 534.347 179.949L537.087 178.71L537.2 178.598L537.087 178.485L534.347 177.246C533.997 177.097 533.772 176.859 533.673 176.534C533.572 176.209 533.611 175.883 533.785 175.558C533.985 175.233 534.248 175.039 534.572 174.975C534.897 174.914 535.211 174.983 535.511 175.183L537.951 176.985L538.137 177.021L538.176 176.871L537.839 173.906C537.812 173.531 537.912 173.218 538.137 172.969C538.364 172.718 538.664 172.594 539.039 172.594C539.389 172.594 539.676 172.718 539.901 172.969C540.127 173.218 540.215 173.531 540.164 173.906L539.827 176.871L539.864 177.021L540.053 176.985L542.492 175.221C542.791 174.994 543.111 174.914 543.449 174.975C543.785 175.039 544.041 175.233 544.217 175.558C544.443 175.958 544.487 176.309 544.347 176.609C544.211 176.909 543.979 177.122 543.653 177.246L540.915 178.485L540.803 178.598L540.915 178.71L543.653 179.949C544.005 180.098 544.236 180.337 544.347 180.661C544.46 180.987 544.417 181.313 544.217 181.637C544.041 181.962 543.785 182.157 543.449 182.218C543.111 182.282 542.791 182.211 542.492 182.013L540.053 180.211L539.864 180.174L539.827 180.323L540.164 183.289C540.215 183.663 540.12 183.977 539.884 184.226C539.644 184.477 539.339 184.601 538.963 184.601Z" fill="white"/>
<path d="M555.129 184.601C554.78 184.601 554.499 184.477 554.287 184.226C554.072 183.977 553.979 183.663 554.004 183.289L554.343 180.323L554.304 180.174L554.117 180.211L551.677 181.974C551.377 182.199 551.064 182.282 550.739 182.218C550.415 182.157 550.152 181.962 549.952 181.637C549.727 181.237 549.683 180.886 549.82 180.586C549.956 180.286 550.188 180.074 550.513 179.949L553.253 178.71L553.367 178.598L553.253 178.485L550.513 177.246C550.164 177.097 549.939 176.859 549.839 176.534C549.739 176.209 549.777 175.883 549.952 175.558C550.152 175.233 550.415 175.039 550.739 174.975C551.064 174.914 551.377 174.983 551.677 175.183L554.117 176.985L554.304 177.021L554.343 176.871L554.004 173.906C553.979 173.531 554.079 173.218 554.304 172.969C554.529 172.718 554.829 172.594 555.205 172.594C555.556 172.594 555.843 172.718 556.068 172.969C556.293 173.218 556.381 173.531 556.331 173.906L555.993 176.871L556.031 177.021L556.219 176.985L558.657 175.221C558.956 174.994 559.277 174.914 559.615 174.975C559.952 175.039 560.208 175.233 560.384 175.558C560.608 175.958 560.652 176.309 560.513 176.609C560.377 176.909 560.145 177.122 559.82 177.246L557.081 178.485L556.968 178.598L557.081 178.71L559.82 179.949C560.171 180.098 560.403 180.337 560.513 180.661C560.627 180.987 560.584 181.313 560.384 181.637C560.208 181.962 559.952 182.157 559.615 182.218C559.277 182.282 558.956 182.211 558.657 182.013L556.219 180.211L556.031 180.174L555.993 180.323L556.331 183.289C556.381 183.663 556.287 183.977 556.049 184.226C555.811 184.477 555.505 184.601 555.129 184.601Z" fill="#5DA4DE"/>
</g>
<defs>
<clipPath id="clip0_403_1874">
<rect width="585" height="440" fill="white"/>
</clipPath>
</defs>
</svg>
