<svg width="56" height="56" viewBox="0 0 56 56" fill="none" xmlns="http://www.w3.org/2000/svg">
<path d="M39.3409 47.29C40.3848 47.29 41.4185 47.0843 42.3829 46.6849C43.3473 46.2854 44.2236 45.6999 44.9617 44.9617M39.3409 47.29C37.2327 47.29 35.2108 46.4525 33.7201 44.9617M39.3409 47.29V53.25M44.9617 44.9617C45.6999 44.2236 46.2854 43.3473 46.6849 42.3829C47.0843 41.4185 47.29 40.3848 47.29 39.3409M44.9617 44.9617L49.177 49.177M47.29 39.3409C47.29 38.297 47.0843 37.2634 46.6849 36.2989C46.2854 35.3345 45.6999 34.4582 44.9617 33.7201M47.29 39.3409H53.25M44.9617 33.7201C44.2236 32.9819 43.3473 32.3964 42.3829 31.9969C41.4185 31.5975 40.3848 31.3919 39.3409 31.3919M44.9617 33.7201L49.177 29.5049M39.3409 31.3919C37.2327 31.3919 35.2108 32.2293 33.7201 33.7201M39.3409 31.3919V25.4318M33.7201 33.7201C32.2293 35.2108 31.3919 37.2327 31.3919 39.3409M33.7201 33.7201L29.5049 29.5049M31.3919 39.3409C31.3919 41.4491 32.2293 43.471 33.7201 44.9617M31.3919 39.3409H25.4318M33.7201 44.9617L29.5049 49.177M38.0172 25.4318H40.6646M48.2404 28.5683L50.1135 30.4414M53.25 38.0172V40.6646M50.1135 48.2404L48.2404 50.1135M40.6646 53.25H38.0172M30.4414 50.1135L28.5683 48.2404M25.4318 40.6646V38.0172M28.5683 30.4414L30.4414 28.5683M15.4984 38.7614C13.7743 38.7614 12.1117 38.121 10.8331 36.9645C9.55449 35.8079 8.75104 34.2177 8.57864 32.5023L5.72727 2.25H33.5455L32.3284 16.1591M2.25 2.25H37.0227M14.4205 2.25L16.1591 31.8068M24.8523 2.25L23.8555 19.634" stroke="white" stroke-width="4.5" stroke-linecap="round" stroke-linejoin="round"/>
</svg>
