<svg width="234" height="234" viewBox="0 0 234 234" fill="none" xmlns="http://www.w3.org/2000/svg">
<path d="M165.277 198.672C169.662 198.672 174.005 197.808 178.056 196.13C182.108 194.452 185.79 191.992 188.891 188.891M165.277 198.672C156.42 198.672 147.926 195.154 141.663 188.891M165.277 198.672V223.711M188.891 188.891C191.992 185.79 194.451 182.109 196.13 178.057C197.808 174.005 198.672 169.663 198.672 165.277M188.891 188.891L206.599 206.6M198.672 165.277C198.672 160.892 197.808 156.549 196.13 152.497C194.451 148.446 191.992 144.764 188.891 141.663M198.672 165.277H223.711M188.891 141.663C185.79 138.562 182.108 136.102 178.056 134.424C174.005 132.746 169.662 131.882 165.277 131.882M188.891 141.663L206.599 123.955M165.277 131.882C156.42 131.882 147.926 135.401 141.663 141.663M165.277 131.882V106.843M141.663 141.663C135.4 147.926 131.882 156.42 131.882 165.277M141.663 141.663L123.954 123.955M131.882 165.277C131.882 174.134 135.4 182.628 141.663 188.891M131.882 165.277H106.843M141.663 188.891L123.954 206.6M159.716 106.843H170.838M202.665 120.02L210.534 127.889M223.711 159.716V170.838M210.534 202.665L202.665 210.534M170.838 223.711H159.716M127.889 210.534L120.02 202.665M106.843 170.838V159.716M120.02 127.889L127.889 120.02M65.1111 162.842C57.868 162.843 50.8831 160.152 45.5115 155.293C40.1398 150.435 36.7644 143.754 36.0401 136.547L24.0611 9.45312H140.929L135.816 67.8872M9.45264 9.45312H155.538M60.5824 9.45312L67.8867 133.625M104.408 9.45312L100.22 82.4859" stroke="#077A7D" stroke-width="18.9051" stroke-linecap="round" stroke-linejoin="round"/>
</svg>
