<svg width="217" height="57" viewBox="0 0 217 57" fill="none" xmlns="http://www.w3.org/2000/svg">
<path d="M39.3409 47.29C40.3848 47.29 41.4185 47.0843 42.3829 46.6849C43.3473 46.2854 44.2236 45.6999 44.9617 44.9617M39.3409 47.29C37.2327 47.29 35.2108 46.4525 33.7201 44.9617M39.3409 47.29V53.25M44.9617 44.9617C45.6999 44.2236 46.2854 43.3473 46.6849 42.3829C47.0843 41.4185 47.29 40.3848 47.29 39.3409M44.9617 44.9617L49.177 49.177M47.29 39.3409C47.29 38.297 47.0843 37.2634 46.6849 36.2989C46.2854 35.3345 45.6999 34.4582 44.9617 33.7201M47.29 39.3409H53.25M44.9617 33.7201C44.2236 32.9819 43.3473 32.3964 42.3829 31.9969C41.4185 31.5975 40.3848 31.3919 39.3409 31.3919M44.9617 33.7201L49.177 29.5049M39.3409 31.3919C37.2327 31.3919 35.2108 32.2293 33.7201 33.7201M39.3409 31.3919V25.4318M33.7201 33.7201C32.2293 35.2108 31.3919 37.2327 31.3919 39.3409M33.7201 33.7201L29.5049 29.5049M31.3919 39.3409C31.3919 41.4491 32.2293 43.471 33.7201 44.9617M31.3919 39.3409H25.4318M33.7201 44.9617L29.5049 49.177M38.0172 25.4318H40.6646M48.2404 28.5683L50.1135 30.4414M53.25 38.0172V40.6646M50.1135 48.2404L48.2404 50.1135M40.6646 53.25H38.0172M30.4414 50.1135L28.5683 48.2404M25.4318 40.6646V38.0172M28.5683 30.4414L30.4414 28.5683M15.4984 38.7614C13.7743 38.7614 12.1117 38.121 10.8331 36.9645C9.55449 35.8079 8.75104 34.2177 8.57864 32.5023L5.72727 2.25H33.5455L32.3284 16.1591M2.25 2.25H37.0227M14.4205 2.25L16.1591 31.8068M24.8523 2.25L23.8555 19.634" stroke="white" stroke-width="4.5" stroke-linecap="round" stroke-linejoin="round"/>
<path d="M78.99 24.05C79.8033 24.2233 80.4567 24.63 80.95 25.27C81.4433 25.8967 81.69 26.6167 81.69 27.43C81.69 28.6033 81.2767 29.5367 80.45 30.23C79.6367 30.91 78.4967 31.25 77.03 31.25H70.49V17.21H76.81C78.2367 17.21 79.35 17.5367 80.15 18.19C80.9633 18.8433 81.37 19.73 81.37 20.85C81.37 21.6767 81.15 22.3633 80.71 22.91C80.2833 23.4567 79.71 23.8367 78.99 24.05ZM73.91 22.89H76.15C76.71 22.89 77.1367 22.77 77.43 22.53C77.7367 22.2767 77.89 21.91 77.89 21.43C77.89 20.95 77.7367 20.5833 77.43 20.33C77.1367 20.0767 76.71 19.95 76.15 19.95H73.91V22.89ZM76.43 28.49C77.0033 28.49 77.4433 28.3633 77.75 28.11C78.07 27.8433 78.23 27.4633 78.23 26.97C78.23 26.4767 78.0633 26.09 77.73 25.81C77.41 25.53 76.9633 25.39 76.39 25.39H73.91V28.49H76.43ZM82.9936 25.65C82.9936 24.5033 83.2069 23.4967 83.6336 22.63C84.0736 21.7633 84.6669 21.0967 85.4136 20.63C86.1603 20.1633 86.9936 19.93 87.9136 19.93C88.7003 19.93 89.3869 20.09 89.9736 20.41C90.5736 20.73 91.0336 21.15 91.3536 21.67V20.09H94.7736V31.25H91.3536V29.67C91.0203 30.19 90.5536 30.61 89.9536 30.93C89.3669 31.25 88.6803 31.41 87.8936 31.41C86.9869 31.41 86.1603 31.1767 85.4136 30.71C84.6669 30.23 84.0736 29.5567 83.6336 28.69C83.2069 27.81 82.9936 26.7967 82.9936 25.65ZM91.3536 25.67C91.3536 24.8167 91.1136 24.1433 90.6336 23.65C90.1669 23.1567 89.5936 22.91 88.9136 22.91C88.2336 22.91 87.6536 23.1567 87.1736 23.65C86.7069 24.13 86.4736 24.7967 86.4736 25.65C86.4736 26.5033 86.7069 27.1833 87.1736 27.69C87.6536 28.1833 88.2336 28.43 88.9136 28.43C89.5936 28.43 90.1669 28.1833 90.6336 27.69C91.1136 27.1967 91.3536 26.5233 91.3536 25.67ZM104.048 19.97C105.354 19.97 106.394 20.3967 107.168 21.25C107.954 22.09 108.348 23.25 108.348 24.73V31.25H104.948V25.19C104.948 24.4433 104.754 23.8633 104.368 23.45C103.981 23.0367 103.461 22.83 102.808 22.83C102.154 22.83 101.634 23.0367 101.248 23.45C100.861 23.8633 100.668 24.4433 100.668 25.19V31.25H97.2478V20.09H100.668V21.57C101.014 21.0767 101.481 20.69 102.068 20.41C102.654 20.1167 103.314 19.97 104.048 19.97ZM117.544 31.25L114.144 26.57V31.25H110.724V16.45H114.144V24.63L117.524 20.09H121.744L117.104 25.69L121.784 31.25H117.544ZM132.406 31.39C131.379 31.39 130.459 31.2233 129.646 30.89C128.833 30.5567 128.179 30.0633 127.686 29.41C127.206 28.7567 126.953 27.97 126.926 27.05H130.566C130.619 27.57 130.799 27.97 131.106 28.25C131.413 28.5167 131.813 28.65 132.306 28.65C132.813 28.65 133.213 28.5367 133.506 28.31C133.799 28.07 133.946 27.7433 133.946 27.33C133.946 26.9833 133.826 26.6967 133.586 26.47C133.359 26.2433 133.073 26.0567 132.726 25.91C132.393 25.7633 131.913 25.5967 131.286 25.41C130.379 25.13 129.639 24.85 129.066 24.57C128.493 24.29 127.999 23.8767 127.586 23.33C127.173 22.7833 126.966 22.07 126.966 21.19C126.966 19.8833 127.439 18.8633 128.386 18.13C129.333 17.3833 130.566 17.01 132.086 17.01C133.633 17.01 134.879 17.3833 135.826 18.13C136.773 18.8633 137.279 19.89 137.346 21.21H133.646C133.619 20.7567 133.453 20.4033 133.146 20.15C132.839 19.8833 132.446 19.75 131.966 19.75C131.553 19.75 131.219 19.8633 130.966 20.09C130.713 20.3033 130.586 20.6167 130.586 21.03C130.586 21.4833 130.799 21.8367 131.226 22.09C131.653 22.3433 132.319 22.6167 133.226 22.91C134.133 23.2167 134.866 23.51 135.426 23.79C135.999 24.07 136.493 24.4767 136.906 25.01C137.319 25.5433 137.526 26.23 137.526 27.07C137.526 27.87 137.319 28.5967 136.906 29.25C136.506 29.9033 135.919 30.4233 135.146 30.81C134.373 31.1967 133.459 31.39 132.406 31.39ZM138.951 25.65C138.951 24.5033 139.164 23.4967 139.591 22.63C140.031 21.7633 140.624 21.0967 141.371 20.63C142.117 20.1633 142.951 19.93 143.871 19.93C144.657 19.93 145.344 20.09 145.931 20.41C146.531 20.73 146.991 21.15 147.311 21.67V20.09H150.731V31.25H147.311V29.67C146.977 30.19 146.511 30.61 145.911 30.93C145.324 31.25 144.637 31.41 143.851 31.41C142.944 31.41 142.117 31.1767 141.371 30.71C140.624 30.23 140.031 29.5567 139.591 28.69C139.164 27.81 138.951 26.7967 138.951 25.65ZM147.311 25.67C147.311 24.8167 147.071 24.1433 146.591 23.65C146.124 23.1567 145.551 22.91 144.871 22.91C144.191 22.91 143.611 23.1567 143.131 23.65C142.664 24.13 142.431 24.7967 142.431 25.65C142.431 26.5033 142.664 27.1833 143.131 27.69C143.611 28.1833 144.191 28.43 144.871 28.43C145.551 28.43 146.124 28.1833 146.591 27.69C147.071 27.1967 147.311 26.5233 147.311 25.67ZM167.445 19.97C168.832 19.97 169.932 20.39 170.745 21.23C171.572 22.07 171.985 23.2367 171.985 24.73V31.25H168.585V25.19C168.585 24.47 168.392 23.9167 168.005 23.53C167.632 23.13 167.112 22.93 166.445 22.93C165.778 22.93 165.252 23.13 164.865 23.53C164.492 23.9167 164.305 24.47 164.305 25.19V31.25H160.905V25.19C160.905 24.47 160.712 23.9167 160.325 23.53C159.952 23.13 159.432 22.93 158.765 22.93C158.098 22.93 157.572 23.13 157.185 23.53C156.812 23.9167 156.625 24.47 156.625 25.19V31.25H153.205V20.09H156.625V21.49C156.972 21.0233 157.425 20.6567 157.985 20.39C158.545 20.11 159.178 19.97 159.885 19.97C160.725 19.97 161.472 20.15 162.125 20.51C162.792 20.87 163.312 21.3833 163.685 22.05C164.072 21.4367 164.598 20.9367 165.265 20.55C165.932 20.1633 166.658 19.97 167.445 19.97ZM177.797 21.67C178.13 21.15 178.59 20.73 179.177 20.41C179.763 20.09 180.45 19.93 181.237 19.93C182.157 19.93 182.99 20.1633 183.737 20.63C184.483 21.0967 185.07 21.7633 185.497 22.63C185.937 23.4967 186.157 24.5033 186.157 25.65C186.157 26.7967 185.937 27.81 185.497 28.69C185.07 29.5567 184.483 30.23 183.737 30.71C182.99 31.1767 182.157 31.41 181.237 31.41C180.463 31.41 179.777 31.25 179.177 30.93C178.59 30.61 178.13 30.1967 177.797 29.69V36.57H174.377V20.09H177.797V21.67ZM182.677 25.65C182.677 24.7967 182.437 24.13 181.957 23.65C181.49 23.1567 180.91 22.91 180.217 22.91C179.537 22.91 178.957 23.1567 178.477 23.65C178.01 24.1433 177.777 24.8167 177.777 25.67C177.777 26.5233 178.01 27.1967 178.477 27.69C178.957 28.1833 179.537 28.43 180.217 28.43C180.897 28.43 181.477 28.1833 181.957 27.69C182.437 27.1833 182.677 26.5033 182.677 25.65ZM187.271 25.65C187.271 24.5033 187.484 23.4967 187.911 22.63C188.351 21.7633 188.944 21.0967 189.691 20.63C190.438 20.1633 191.271 19.93 192.191 19.93C192.978 19.93 193.664 20.09 194.251 20.41C194.851 20.73 195.311 21.15 195.631 21.67V20.09H199.051V31.25H195.631V29.67C195.298 30.19 194.831 30.61 194.231 30.93C193.644 31.25 192.958 31.41 192.171 31.41C191.264 31.41 190.438 31.1767 189.691 30.71C188.944 30.23 188.351 29.5567 187.911 28.69C187.484 27.81 187.271 26.7967 187.271 25.65ZM195.631 25.67C195.631 24.8167 195.391 24.1433 194.911 23.65C194.444 23.1567 193.871 22.91 193.191 22.91C192.511 22.91 191.931 23.1567 191.451 23.65C190.984 24.13 190.751 24.7967 190.751 25.65C190.751 26.5033 190.984 27.1833 191.451 27.69C191.931 28.1833 192.511 28.43 193.191 28.43C193.871 28.43 194.444 28.1833 194.911 27.69C195.391 27.1967 195.631 26.5233 195.631 25.67ZM208.385 19.97C209.665 19.97 210.692 20.3967 211.465 21.25C212.238 22.09 212.625 23.25 212.625 24.73V31.25H209.225V25.19C209.225 24.4433 209.032 23.8633 208.645 23.45C208.258 23.0367 207.738 22.83 207.085 22.83C206.432 22.83 205.912 23.0367 205.525 23.45C205.138 23.8633 204.945 24.4433 204.945 25.19V31.25H201.525V16.45H204.945V21.59C205.292 21.0967 205.765 20.7033 206.365 20.41C206.965 20.1167 207.638 19.97 208.385 19.97Z" fill="white"/>
<path d="M76.125 51.25H75.124L71.098 45.145V51.25H70.097V43.572H71.098L75.124 49.666V43.572H76.125V51.25ZM80.3174 45.123C80.838 45.123 81.2927 45.2367 81.6814 45.464C82.0774 45.6913 82.3707 45.9773 82.5614 46.322V45.222H83.5734V51.382C83.5734 51.932 83.456 52.4197 83.2214 52.845C82.9867 53.2777 82.6494 53.615 82.2094 53.857C81.7767 54.099 81.2707 54.22 80.6914 54.22C79.8994 54.22 79.2394 54.033 78.7114 53.659C78.1834 53.285 77.8717 52.7753 77.7764 52.13H78.7664C78.8764 52.4967 79.1037 52.79 79.4484 53.01C79.793 53.2373 80.2074 53.351 80.6914 53.351C81.2414 53.351 81.6887 53.1787 82.0334 52.834C82.3854 52.4893 82.5614 52.0053 82.5614 51.382V50.117C82.3634 50.469 82.07 50.7623 81.6814 50.997C81.2927 51.2317 80.838 51.349 80.3174 51.349C79.782 51.349 79.2944 51.217 78.8544 50.953C78.4217 50.689 78.0807 50.3187 77.8314 49.842C77.582 49.3653 77.4574 48.8227 77.4574 48.214C77.4574 47.598 77.582 47.059 77.8314 46.597C78.0807 46.1277 78.4217 45.7647 78.8544 45.508C79.2944 45.2513 79.782 45.123 80.3174 45.123ZM82.5614 48.225C82.5614 47.7703 82.4697 47.3743 82.2864 47.037C82.103 46.6997 81.8537 46.443 81.5384 46.267C81.2304 46.0837 80.8894 45.992 80.5154 45.992C80.1414 45.992 79.8004 46.08 79.4924 46.256C79.1844 46.432 78.9387 46.6887 78.7554 47.026C78.572 47.3633 78.4804 47.7593 78.4804 48.214C78.4804 48.676 78.572 49.0793 78.7554 49.424C78.9387 49.7613 79.1844 50.0217 79.4924 50.205C79.8004 50.381 80.1414 50.469 80.5154 50.469C80.8894 50.469 81.2304 50.381 81.5384 50.205C81.8537 50.0217 82.103 49.7613 82.2864 49.424C82.4697 49.0793 82.5614 48.6797 82.5614 48.225ZM86.266 43.11V51.25H85.265V43.11H86.266ZM93.472 48.005C93.472 48.1957 93.461 48.3973 93.439 48.61H88.621C88.6577 49.204 88.8593 49.6697 89.226 50.007C89.6 50.337 90.051 50.502 90.579 50.502C91.0117 50.502 91.371 50.403 91.657 50.205C91.9503 49.9997 92.1557 49.7283 92.273 49.391H93.351C93.1897 49.9703 92.867 50.4433 92.383 50.81C91.899 51.1693 91.2977 51.349 90.579 51.349C90.007 51.349 89.4937 51.2207 89.039 50.964C88.5917 50.7073 88.2397 50.3443 87.983 49.875C87.7263 49.3983 87.598 48.8483 87.598 48.225C87.598 47.6017 87.7227 47.0553 87.972 46.586C88.2213 46.1167 88.5697 45.7573 89.017 45.508C89.4717 45.2513 89.9923 45.123 90.579 45.123C91.151 45.123 91.657 45.2477 92.097 45.497C92.537 45.7463 92.8743 46.091 93.109 46.531C93.351 46.9637 93.472 47.455 93.472 48.005ZM92.438 47.796C92.438 47.4147 92.3537 47.0883 92.185 46.817C92.0163 46.5383 91.7853 46.3293 91.492 46.19C91.206 46.0433 90.887 45.97 90.535 45.97C90.029 45.97 89.5963 46.1313 89.237 46.454C88.885 46.7767 88.6833 47.224 88.632 47.796H92.438ZM97.7303 45.112C98.4636 45.112 99.0576 45.3357 99.5123 45.783C99.967 46.223 100.194 46.861 100.194 47.697V51.25H99.2043V47.84C99.2043 47.2387 99.054 46.7803 98.7533 46.465C98.4526 46.1423 98.042 45.981 97.5213 45.981C96.9933 45.981 96.5716 46.146 96.2563 46.476C95.9483 46.806 95.7943 47.2863 95.7943 47.917V51.25H94.7933V45.222H95.7943V46.08C95.9923 45.772 96.26 45.5337 96.5973 45.365C96.942 45.1963 97.3196 45.112 97.7303 45.112ZM104.315 45.123C104.836 45.123 105.291 45.2367 105.679 45.464C106.075 45.6913 106.369 45.9773 106.559 46.322V45.222H107.571V51.382C107.571 51.932 107.454 52.4197 107.219 52.845C106.985 53.2777 106.647 53.615 106.207 53.857C105.775 54.099 105.269 54.22 104.689 54.22C103.897 54.22 103.237 54.033 102.709 53.659C102.181 53.285 101.87 52.7753 101.774 52.13H102.764C102.874 52.4967 103.102 52.79 103.446 53.01C103.791 53.2373 104.205 53.351 104.689 53.351C105.239 53.351 105.687 53.1787 106.031 52.834C106.383 52.4893 106.559 52.0053 106.559 51.382V50.117C106.361 50.469 106.068 50.7623 105.679 50.997C105.291 51.2317 104.836 51.349 104.315 51.349C103.78 51.349 103.292 51.217 102.852 50.953C102.42 50.689 102.079 50.3187 101.829 49.842C101.58 49.3653 101.455 48.8227 101.455 48.214C101.455 47.598 101.58 47.059 101.829 46.597C102.079 46.1277 102.42 45.7647 102.852 45.508C103.292 45.2513 103.78 45.123 104.315 45.123ZM106.559 48.225C106.559 47.7703 106.468 47.3743 106.284 47.037C106.101 46.6997 105.852 46.443 105.536 46.267C105.228 46.0837 104.887 45.992 104.513 45.992C104.139 45.992 103.798 46.08 103.49 46.256C103.182 46.432 102.937 46.6887 102.753 47.026C102.57 47.3633 102.478 47.7593 102.478 48.214C102.478 48.676 102.57 49.0793 102.753 49.424C102.937 49.7613 103.182 50.0217 103.49 50.205C103.798 50.381 104.139 50.469 104.513 50.469C104.887 50.469 105.228 50.381 105.536 50.205C105.852 50.0217 106.101 49.7613 106.284 49.424C106.468 49.0793 106.559 48.6797 106.559 48.225ZM109.78 44.243C109.589 44.243 109.428 44.177 109.296 44.045C109.164 43.913 109.098 43.7517 109.098 43.561C109.098 43.3703 109.164 43.209 109.296 43.077C109.428 42.945 109.589 42.879 109.78 42.879C109.963 42.879 110.117 42.945 110.242 43.077C110.374 43.209 110.44 43.3703 110.44 43.561C110.44 43.7517 110.374 43.913 110.242 44.045C110.117 44.177 109.963 44.243 109.78 44.243ZM110.264 45.222V51.25H109.263V45.222H110.264ZM114.104 51.349C113.642 51.349 113.228 51.272 112.861 51.118C112.494 50.9567 112.205 50.7367 111.992 50.458C111.779 50.172 111.662 49.8457 111.64 49.479H112.674C112.703 49.7797 112.843 50.0253 113.092 50.216C113.349 50.4067 113.682 50.502 114.093 50.502C114.474 50.502 114.775 50.4177 114.995 50.249C115.215 50.0803 115.325 49.8677 115.325 49.611C115.325 49.347 115.208 49.1527 114.973 49.028C114.738 48.896 114.375 48.7677 113.884 48.643C113.437 48.5257 113.07 48.4083 112.784 48.291C112.505 48.1663 112.263 47.9867 112.058 47.752C111.86 47.51 111.761 47.1947 111.761 46.806C111.761 46.498 111.853 46.2157 112.036 45.959C112.219 45.7023 112.48 45.5007 112.817 45.354C113.154 45.2 113.539 45.123 113.972 45.123C114.639 45.123 115.178 45.2917 115.589 45.629C116 45.9663 116.22 46.4283 116.249 47.015H115.248C115.226 46.6997 115.098 46.4467 114.863 46.256C114.636 46.0653 114.328 45.97 113.939 45.97C113.58 45.97 113.294 46.047 113.081 46.201C112.868 46.355 112.762 46.5567 112.762 46.806C112.762 47.004 112.824 47.169 112.949 47.301C113.081 47.4257 113.242 47.5283 113.433 47.609C113.631 47.6823 113.902 47.7667 114.247 47.862C114.68 47.9793 115.032 48.0967 115.303 48.214C115.574 48.324 115.805 48.4927 115.996 48.72C116.194 48.9473 116.297 49.2443 116.304 49.611C116.304 49.941 116.212 50.238 116.029 50.502C115.846 50.766 115.585 50.975 115.248 51.129C114.918 51.2757 114.537 51.349 114.104 51.349Z" fill="white"/>
</svg>
